<svg aria-hidden="true" style="position: absolute; width: 0; height: 0; overflow: hidden;" version="1.1" xmlns="http://www.w3.org/2000/svg" xmlns:xlink="http://www.w3.org/1999/xlink">
<defs>
<symbol id="icon-instagram" viewBox="0 0 24 28">
<path d="M16 14c0-2.203-1.797-4-4-4s-4 1.797-4 4 1.797 4 4 4 4-1.797 4-4zM18.156 14c0 3.406-2.75 6.156-6.156 6.156s-6.156-2.75-6.156-6.156 2.75-6.156 6.156-6.156 6.156 2.75 6.156 6.156zM19.844 7.594c0 0.797-0.641 1.437-1.437 1.437s-1.437-0.641-1.437-1.437 0.641-1.437 1.437-1.437 1.437 0.641 1.437 1.437zM12 4.156c-1.75 0-5.5-0.141-7.078 0.484-0.547 0.219-0.953 0.484-1.375 0.906s-0.688 0.828-0.906 1.375c-0.625 1.578-0.484 5.328-0.484 7.078s-0.141 5.5 0.484 7.078c0.219 0.547 0.484 0.953 0.906 1.375s0.828 0.688 1.375 0.906c1.578 0.625 5.328 0.484 7.078 0.484s5.5 0.141 7.078-0.484c0.547-0.219 0.953-0.484 1.375-0.906s0.688-0.828 0.906-1.375c0.625-1.578 0.484-5.328 0.484-7.078s0.141-5.5-0.484-7.078c-0.219-0.547-0.484-0.953-0.906-1.375s-0.828-0.688-1.375-0.906c-1.578-0.625-5.328-0.484-7.078-0.484zM24 14c0 1.656 0.016 3.297-0.078 4.953-0.094 1.922-0.531 3.625-1.937 5.031s-3.109 1.844-5.031 1.937c-1.656 0.094-3.297 0.078-4.953 0.078s-3.297 0.016-4.953-0.078c-1.922-0.094-3.625-0.531-5.031-1.937s-1.844-3.109-1.937-5.031c-0.094-1.656-0.078-3.297-0.078-4.953s-0.016-3.297 0.078-4.953c0.094-1.922 0.531-3.625 1.937-5.031s3.109-1.844 5.031-1.937c1.656-0.094 3.297-0.078 4.953-0.078s3.297-0.016 4.953 0.078c1.922 0.094 3.625 0.531 5.031 1.937s1.844 3.109 1.937 5.031c0.094 1.656 0.078 3.297 0.078 4.953z"></path>
</symbol>
<symbol id="icon-facebook-square" viewBox="0 0 24 28">
<path d="M19.5 2c2.484 0 4.5 2.016 4.5 4.5v15c0 2.484-2.016 4.5-4.5 4.5h-2.938v-9.297h3.109l0.469-3.625h-3.578v-2.312c0-1.047 0.281-1.75 1.797-1.75l1.906-0.016v-3.234c-0.328-0.047-1.469-0.141-2.781-0.141-2.766 0-4.672 1.687-4.672 4.781v2.672h-3.125v3.625h3.125v9.297h-8.313c-2.484 0-4.5-2.016-4.5-4.5v-15c0-2.484 2.016-4.5 4.5-4.5h15z"></path>
</symbol>
<symbol id="icon-line" viewBox="0 0 32 32">
<path fill="#00c300" style="fill: var(--color1, #00c300)" d="M25.82 13.151c0.465 0 0.84 0.38 0.84 0.841 0 0.46-0.375 0.84-0.84 0.84h-2.34v1.5h2.34c0.465 0 0.84 0.377 0.84 0.84 0 0.459-0.375 0.839-0.84 0.839h-3.181c-0.46 0-0.836-0.38-0.836-0.839v-6.361c0-0.46 0.376-0.84 0.84-0.84h3.181c0.461 0 0.836 0.38 0.836 0.84 0 0.465-0.375 0.84-0.84 0.84h-2.34v1.5zM20.68 17.172c0 0.36-0.232 0.68-0.576 0.795-0.085 0.028-0.177 0.041-0.265 0.041-0.281 0-0.521-0.12-0.68-0.333l-3.257-4.423v3.92c0 0.459-0.372 0.839-0.841 0.839-0.461 0-0.835-0.38-0.835-0.839v-6.361c0-0.36 0.231-0.68 0.573-0.793 0.080-0.031 0.181-0.044 0.259-0.044 0.26 0 0.5 0.139 0.66 0.339l3.283 4.44v-3.941c0-0.46 0.376-0.84 0.84-0.84 0.46 0 0.84 0.38 0.84 0.84zM13.025 17.172c0 0.459-0.376 0.839-0.841 0.839-0.46 0-0.836-0.38-0.836-0.839v-6.361c0-0.46 0.376-0.84 0.84-0.84 0.461 0 0.837 0.38 0.837 0.84zM9.737 18.011h-3.181c-0.46 0-0.84-0.38-0.84-0.839v-6.361c0-0.46 0.38-0.84 0.84-0.84 0.464 0 0.84 0.38 0.84 0.84v5.521h2.341c0.464 0 0.839 0.377 0.839 0.84 0 0.459-0.376 0.839-0.839 0.839zM32 13.752c0-7.161-7.18-12.989-16-12.989s-16 5.828-16 12.989c0 6.415 5.693 11.789 13.38 12.811 0.521 0.109 1.231 0.344 1.411 0.787 0.16 0.401 0.105 1.021 0.051 1.44l-0.219 1.36c-0.060 0.401-0.32 1.581 1.399 0.86 1.721-0.719 9.221-5.437 12.581-9.3 2.299-2.519 3.397-5.099 3.397-7.957z"></path>
</symbol>
<symbol id="icon-x" viewBox="0 0 32 32">
<path d="M24.325 3h4.411l-9.636 11.013 11.336 14.987h-8.876l-6.952-9.089-7.955 9.089h-4.413l10.307-11.78-10.875-14.22h9.101l6.284 8.308zM22.777 26.36h2.444l-15.776-20.859h-2.623z"></path>
</symbol>
</defs>
</svg>
